# xmcd
# 
# Track frame offsets:
#     150
#     25184
#     47271
#     64119
#     87809
#     116438
#     137513
#     154923
#     175811
#     196768
#     216878
#     236615
#     258391
#     276012
#     299169
#     318449
# 
# Disc length: 4524
# 
# Revision: 0
# Processed by: cddbd v1.5.2PL0 Copyright (c) Steve Scherf et al.
# Submitted via: BonkEnc v1.0
# 
DISCID=e011aa10
DTITLE=Begin - Begin Best 1990 - 2000
DYEAR=2001
DGENRE=Rock
TTITLE0=恋しくて
TTITLE1=流星の12弦ギター
TTITLE2=太陽のチルドレン
TTITLE3=その夜観覧車最後の一周
TTITLE4=グライダー
TTITLE5=You
TTITLE6=路上の花束
TTITLE7=LONELY NIGHT
TTITLE8=声のおまもりください
TTITLE9=Birthday Song
TTITLE10=愛が走る
TTITLE11=空に星があるように
TTITLE12=防波堤で見た景色
TTITLE13=未来の君へ
TTITLE14=涙そうそう
TTITLE15=おつかれさん
EXTD=YEAR: 2001
EXTT0=
EXTT1=
EXTT2=
EXTT3=
EXTT4=
EXTT5=
EXTT6=
EXTT7=
EXTT8=
EXTT9=
EXTT10=
EXTT11=
EXTT12=
EXTT13=
EXTT14=
EXTT15=
PLAYORDER=
